<?xml version="1.0" encoding="UTF-8"?>
<!DOCTYPE svg PUBLIC "-//W3C//DTD SVG 1.1//EN" "http://www.w3.org/Graphics/SVG/1.1/DTD/svg11.dtd">
<!-- Creator: CorelDRAW X7 -->
<svg xmlns="http://www.w3.org/2000/svg" xml:space="preserve" width="177.591mm" height="177.591mm" version="1.1" style="shape-rendering:geometricPrecision; text-rendering:geometricPrecision; image-rendering:optimizeQuality; fill-rule:evenodd; clip-rule:evenodd"
viewBox="0 0 17759 17759"
 xmlns:xlink="http://www.w3.org/1999/xlink">
 <defs>
  <style type="text/css">
   <![CDATA[
    .fil2 {fill:#2B2A29}
    .fil0 {fill:#FFDD00}
    .fil1 {fill:#F8AE03;fill-rule:nonzero}
   ]]>
  </style>
 </defs>
 <g id="Layer_x0020_1">
  <metadata id="CorelCorpID_0Corel-Layer"/>
  <path class="fil0" d="M8880 0c4904,0 8879,3975 8879,8880 0,4904 -3975,8879 -8879,8879 -4905,0 -8880,-3975 -8880,-8879 0,-4905 3975,-8880 8880,-8880z"/>
  <path class="fil1" d="M8880 872c2211,0 4213,897 5662,2346 1449,1449 2345,3450 2345,5662 0,2211 -896,4213 -2345,5662 -1449,1449 -3451,2345 -5662,2345 -2212,0 -4213,-896 -5662,-2345 -1449,-1449 -2346,-3451 -2346,-5662 0,-2212 897,-4213 2346,-5662 1449,-1449 3450,-2346 5662,-2346zm5346 2661c-1368,-1368 -3259,-2214 -5346,-2214 -2088,0 -3979,846 -5347,2214 -1368,1368 -2214,3259 -2214,5347 0,2087 846,3978 2214,5346 1368,1368 3259,2214 5347,2214 2087,0 3978,-846 5346,-2214 1368,-1368 2214,-3259 2214,-5346 0,-2088 -846,-3979 -2214,-5347z"/>
  <path class="fil2" d="M3326 4997l6580 0c163,0 296,133 296,296l0 6210c0,7 -5,12 -11,12l-2831 0c-29,694 -600,1247 -1301,1247 -701,0 -1273,-553 -1302,-1247l-1431 0c-163,0 -296,-134 -296,-297l0 -2498 2056 0 0 -460 -2056 0 0 -368 2792 0 0 -460 -2792 0 0 -369 3497 0 0 -460 -3497 0 0 -368 4274 0 0 -460 -4274 0 0 -482c0,-163 133,-296 296,-296zm10339 6518c-28,694 -600,1247 -1301,1247 -701,0 -1272,-553 -1301,-1247l-309 0c-6,0 -11,-5 -11,-12l0 -4776c0,-163 133,-297 297,-297l1621 0c686,0 2068,1967 2068,2130l0 2658c0,163 -133,297 -296,297l-768 0zm-1112 -4641l-530 0c-68,0 -124,56 -124,125l0 1891c0,3 2,5 5,5l2120 0c191,0 127,-162 98,-224 -309,-673 -802,-1282 -1569,-1797zm-6494 3718c479,0 868,388 868,868 0,480 -389,869 -868,869 -480,0 -869,-389 -869,-869 0,-480 389,-868 869,-868zm6305 0c480,0 869,388 869,868 0,480 -389,869 -869,869 -479,0 -868,-389 -868,-869 0,-480 389,-868 868,-868z"/>
 </g>
</svg>
